<svg width="170" height="90" viewBox="0 0 170 90" fill="none" xmlns="http://www.w3.org/2000/svg">
<rect x="0.5" y="0.5" width="169" height="89" rx="3.5" stroke="#AFB1B8"/>
<path d="M57.4022 36.8306H57.3995C55.1372 36.8306 53.3032 38.6177 53.3032 40.8223V40.8249C53.3032 43.0295 55.1372 44.8167 57.3995 44.8167H57.4022C59.6645 44.8167 61.4985 43.0295 61.4985 40.8249V40.8223C61.4985 38.6177 59.6645 36.8306 57.4022 36.8306Z" fill="#AFB1B8"/>
<path d="M87.6368 35.5545C87.6304 32.4924 86.3795 29.5575 84.1579 27.3921C81.9363 25.2266 78.925 24.007 75.7828 24V24C72.6397 24.0056 69.6269 25.2246 67.4041 27.3902C65.1814 29.5558 63.9298 32.4915 63.9233 35.5545V35.5545V52.4402C63.9233 52.4402 87.6341 49.8667 87.6368 35.5571V35.5545Z" fill="#AFB1B8"/>
<path d="M45 57.9823C45.0057 60.1129 45.8766 62.1547 47.4223 63.6615C48.968 65.1683 51.0629 66.0177 53.2492 66.0239V66.0239C55.4351 66.0177 57.5296 65.1687 59.0752 63.6625C60.6209 62.1562 61.492 60.1151 61.4985 57.9849V57.9849V46.2356C61.4985 46.2356 45 48.0276 45 57.9823ZM53.2492 60.0874C52.822 60.0874 52.4043 59.964 52.0491 59.7326C51.6938 59.5013 51.417 59.1726 51.2535 58.7879C51.09 58.4032 51.0472 57.98 51.1305 57.5716C51.2139 57.1632 51.4196 56.7881 51.7217 56.4937C52.0239 56.1993 52.4088 55.9988 52.8278 55.9176C53.2468 55.8364 53.6812 55.8781 54.0759 56.0374C54.4706 56.1967 54.808 56.4665 55.0454 56.8127C55.2827 57.1589 55.4094 57.5659 55.4094 57.9823C55.4105 58.2594 55.3554 58.534 55.2473 58.7903C55.1392 59.0466 54.9803 59.2796 54.7796 59.476C54.5789 59.6723 54.3404 59.828 54.0778 59.9343C53.8152 60.0406 53.5336 60.0953 53.2492 60.0953V60.0874Z" fill="#AFB1B8"/>
<text fill="#AFB1B8" xml:space="preserve" style="white-space: pre" font-family="Roboto" font-size="6" font-weight="bold" letter-spacing="0em"><tspan x="67.1421" y="60.0752">FOSTER PETERS</tspan></text>
</svg>
