<svg width="44" height="44" viewBox="0 0 44 44" fill="none" xmlns="http://www.w3.org/2000/svg">
<rect width="44" height="44" fill="#E5E5E5"/>
<g id="Desktop">
<g id="&#208;&#147;&#208;&#187;&#208;&#176;&#208;&#178;&#208;&#189;&#208;&#176;&#209;&#143;" clip-path="url(#clip0)">
<rect width="1600" height="2924" transform="translate(-1309 -2139)" fill="white"/>
<g id="&#208;&#157;&#208;&#176;&#209;&#136;&#208;&#176; &#208;&#186;&#208;&#190;&#208;&#188;&#208;&#176;&#208;&#189;&#208;&#180;&#208;&#176;">
<rect id="Section bg" x="-1309" y="-540" width="1600" height="702" fill="#F5F4FA"/>
<g id="team ">
<g id="team card 4">
<g id="card bg" filter="url(#filter0_ddd)">
<path d="M-194 -354H76V64C76 66.2091 74.2091 68 72 68H-190C-192.209 68 -194 66.2091 -194 64V-354Z" fill="white"/>
</g>
<g id="Social links">
<g id="Ellipse">
<path id="Ellipse_2" d="M44 21.9999C44 28.0751 41.5376 33.5751 37.5564 37.5563C33.5751 41.5375 28.0751 43.9999 22 43.9999C15.9249 43.9999 10.4249 41.5375 6.44365 37.5563C2.46243 33.5751 0 28.0751 0 21.9999C0 15.9248 2.46243 10.4248 6.44365 6.44359C10.4249 2.46237 15.9249 -6.10352e-05 22 -6.10352e-05C28.0751 -6.10352e-05 33.5751 2.46237 37.5564 6.44359C41.5376 10.4248 44 15.9248 44 21.9999Z" fill="white"/>
<g id="linkedin 1" clip-path="url(#clip1)">
<path id="Vector" d="M31.9951 32V31.9992H32.0001V24.6642C32.0001 21.0759 31.2276 18.3117 27.0326 18.3117C25.0159 18.3117 23.6626 19.4184 23.1101 20.4675H23.0517V18.6467H19.0742V31.9992H23.2159V25.3875C23.2159 23.6467 23.5459 21.9634 25.7017 21.9634C27.8259 21.9634 27.8576 23.95 27.8576 25.4992V32H31.9951Z" fill="#AFB1B8"/>
<path id="Vector_2" d="M12.3301 18.6475H16.4767V32H12.3301V18.6475Z" fill="#AFB1B8"/>
<path id="Vector_3" d="M14.4017 12C13.0758 12 12 13.0758 12 14.4017C12 15.7275 13.0758 16.8258 14.4017 16.8258C15.7275 16.8258 16.8033 15.7275 16.8033 14.4017C16.8025 13.0758 15.7267 12 14.4017 12V12Z" fill="#AFB1B8"/>
</g>
</g>
</g>
</g>
</g>
</g>
</g>
</g>
<defs>
<filter id="filter0_ddd" x="-197" y="-356" width="276" height="428" filterUnits="userSpaceOnUse" color-interpolation-filters="sRGB">
<feFlood flood-opacity="0" result="BackgroundImageFix"/>
<feColorMatrix in="SourceAlpha" type="matrix" values="0 0 0 0 0 0 0 0 0 0 0 0 0 0 0 0 0 0 127 0"/>
<feOffset dy="2"/>
<feGaussianBlur stdDeviation="0.5"/>
<feColorMatrix type="matrix" values="0 0 0 0 0 0 0 0 0 0 0 0 0 0 0 0 0 0 0.2 0"/>
<feBlend mode="normal" in2="BackgroundImageFix" result="effect1_dropShadow"/>
<feColorMatrix in="SourceAlpha" type="matrix" values="0 0 0 0 0 0 0 0 0 0 0 0 0 0 0 0 0 0 127 0"/>
<feOffset dy="1"/>
<feGaussianBlur stdDeviation="0.5"/>
<feColorMatrix type="matrix" values="0 0 0 0 0 0 0 0 0 0 0 0 0 0 0 0 0 0 0.14 0"/>
<feBlend mode="normal" in2="effect1_dropShadow" result="effect2_dropShadow"/>
<feColorMatrix in="SourceAlpha" type="matrix" values="0 0 0 0 0 0 0 0 0 0 0 0 0 0 0 0 0 0 127 0"/>
<feOffset dy="1"/>
<feGaussianBlur stdDeviation="1.5"/>
<feColorMatrix type="matrix" values="0 0 0 0 0 0 0 0 0 0 0 0 0 0 0 0 0 0 0.12 0"/>
<feBlend mode="normal" in2="effect2_dropShadow" result="effect3_dropShadow"/>
<feBlend mode="normal" in="SourceGraphic" in2="effect3_dropShadow" result="shape"/>
</filter>
<clipPath id="clip0">
<rect width="1600" height="2924" fill="white" transform="translate(-1309 -2139)"/>
</clipPath>
<clipPath id="clip1">
<rect width="20" height="20" fill="white" transform="translate(12 12)"/>
</clipPath>
</defs>
</svg>
